<?xml version="1.0" standalone="no"?>
<!DOCTYPE svg PUBLIC "-//W3C//DTD SVG 20010904//EN"
 "http://www.w3.org/TR/2001/REC-SVG-20010904/DTD/svg10.dtd">
<svg version="1.0" xmlns="http://www.w3.org/2000/svg"
 width="309.000000pt" height="72.000000pt" viewBox="0 0 309.000000 72.000000"
 preserveAspectRatio="xMidYMid meet">

<g transform="translate(0.000000,72.000000) scale(0.100000,-0.100000)"
fill="#000000" stroke="none">
<path d="M10 375 l0 -215 75 0 75 0 1 43 c1 23 4 32 6 21 2 -12 13 -30 25 -40
17 -17 41 -19 188 -22 214 -4 210 -7 210 133 0 169 -17 182 -243 184 l-157 2
0 -46 0 -45 119 0 c69 0 122 -4 126 -10 4 -6 -32 -10 -99 -10 -58 0 -108 1
-110 3 -7 4 -48 -38 -57 -58 -4 -12 -8 41 -8 128 l-1 147 -75 0 -75 0 0 -215z
m430 -105 c0 -18 -7 -20 -59 -20 -33 0 -63 5 -66 10 -13 21 8 30 66 30 52 0
59 -2 59 -20z"/>
<path d="M1880 375 l0 -215 75 0 75 0 0 115 0 115 43 0 c33 0 49 -6 65 -23 19
-20 22 -35 22 -115 l0 -92 75 0 75 0 1 63 c1 52 2 56 8 27 16 -80 43 -90 251
-90 l160 0 0 45 0 45 -123 0 c-117 0 -147 7 -147 32 0 4 55 8 122 8 99 0 125
3 140 17 17 15 18 13 18 -65 l0 -82 75 0 75 0 0 93 c0 88 2 95 26 118 14 13
27 23 30 22 2 -2 22 -3 44 -3 l40 0 0 46 0 46 -97 -4 c-112 -5 -159 -23 -176
-69 l-11 -28 -11 31 c-5 17 -23 41 -38 52 -26 19 -42 21 -170 21 -161 -1 -187
-9 -208 -72 l-12 -36 -13 31 c-19 47 -65 65 -171 70 l-93 4 0 54 0 54 -75 0
-75 0 0 -215z m694 19 c35 -13 13 -24 -49 -24 -60 0 -75 6 -58 23 8 9 86 9
107 1z"/>
<path d="M601 361 c5 -137 17 -164 84 -188 54 -19 304 -14 328 6 14 11 17 36
17 157 l0 144 -70 0 -70 0 0 -99 c0 -55 -3 -106 -6 -115 -4 -12 -20 -16 -54
-16 -71 0 -80 15 -80 133 l0 97 -76 0 -76 0 3 -119z"/>
<path d="M1095 473 c-40 -9 -45 -31 -45 -175 l0 -138 75 0 74 0 3 113 3 112
38 3 c23 2 48 -3 63 -13 23 -15 24 -21 24 -115 l0 -100 75 0 75 0 1 63 c1 53
2 57 9 28 18 -74 62 -90 253 -91 l127 0 0 45 0 45 -100 0 c-87 0 -103 3 -120
20 -23 23 -25 51 -9 83 18 34 28 37 127 37 l92 0 0 46 0 46 -142 -4 c-89 -2
-153 -9 -169 -17 -30 -15 -59 -59 -60 -93 0 -16 -5 -10 -17 22 -14 36 -26 49
-60 66 -36 19 -59 22 -170 22 -70 0 -136 -2 -147 -5z"/>
</g>
</svg>
